<mxfile host="app.diagrams.net" modified="2021-08-22T08:49:25.267Z" agent="5.0 (Windows NT 10.0; Win64; x64) AppleWebKit/537.36 (KHTML, like Gecko) Chrome/92.0.4515.159 Safari/537.36" etag="e4oYT2xuQy8D7Fl2VRA5" version="14.5.6" type="github">
  <diagram id="YM6-xQmxngkJowMAgh16" name="Page-1">
    <mxGraphModel dx="723" dy="375" grid="1" gridSize="10" guides="1" tooltips="1" connect="1" arrows="1" fold="1" page="1" pageScale="1" pageWidth="827" pageHeight="1169" math="0" shadow="0">
      <root>
        <mxCell id="0" />
        <mxCell id="1" parent="0" />
        <mxCell id="1WxFumaSUKwx2EynOyQx-2" value=":BsLightApp" style="shape=umlLifeline;perimeter=lifelinePerimeter;whiteSpace=wrap;html=1;container=1;collapsible=0;recursiveResize=0;outlineConnect=0;" vertex="1" parent="1">
          <mxGeometry x="210" y="360" width="100" height="400" as="geometry" />
        </mxCell>
        <mxCell id="1WxFumaSUKwx2EynOyQx-8" value="" style="html=1;points=[];perimeter=orthogonalPerimeter;" vertex="1" parent="1WxFumaSUKwx2EynOyQx-2">
          <mxGeometry x="45" y="181.02" width="10" height="178.98" as="geometry" />
        </mxCell>
        <mxCell id="1WxFumaSUKwx2EynOyQx-14" value="" style="html=1;points=[];perimeter=orthogonalPerimeter;" vertex="1" parent="1WxFumaSUKwx2EynOyQx-2">
          <mxGeometry x="45" y="50" width="10" height="30" as="geometry" />
        </mxCell>
        <mxCell id="1WxFumaSUKwx2EynOyQx-3" value=":ExLightManager" style="shape=umlLifeline;perimeter=lifelinePerimeter;whiteSpace=wrap;html=1;container=1;collapsible=0;recursiveResize=0;outlineConnect=0;" vertex="1" parent="1">
          <mxGeometry x="410" y="360" width="100" height="400" as="geometry" />
        </mxCell>
        <mxCell id="1WxFumaSUKwx2EynOyQx-16" value="" style="html=1;points=[];perimeter=orthogonalPerimeter;" vertex="1" parent="1WxFumaSUKwx2EynOyQx-3">
          <mxGeometry x="45" y="80" width="10" height="30" as="geometry" />
        </mxCell>
        <mxCell id="1WxFumaSUKwx2EynOyQx-25" value="" style="html=1;points=[];perimeter=orthogonalPerimeter;" vertex="1" parent="1WxFumaSUKwx2EynOyQx-3">
          <mxGeometry x="45" y="250" width="10" height="30" as="geometry" />
        </mxCell>
        <mxCell id="1WxFumaSUKwx2EynOyQx-5" value=":ExLightService" style="shape=umlLifeline;perimeter=lifelinePerimeter;whiteSpace=wrap;html=1;container=1;collapsible=0;recursiveResize=0;outlineConnect=0;" vertex="1" parent="1">
          <mxGeometry x="610" y="360" width="100" height="400" as="geometry" />
        </mxCell>
        <mxCell id="1WxFumaSUKwx2EynOyQx-21" value="" style="html=1;points=[];perimeter=orthogonalPerimeter;" vertex="1" parent="1WxFumaSUKwx2EynOyQx-5">
          <mxGeometry x="45" y="200" width="10" height="30" as="geometry" />
        </mxCell>
        <mxCell id="1WxFumaSUKwx2EynOyQx-7" value="" style="shape=umlLifeline;participant=umlActor;perimeter=lifelinePerimeter;whiteSpace=wrap;html=1;container=1;collapsible=0;recursiveResize=0;verticalAlign=top;spacingTop=36;outlineConnect=0;" vertex="1" parent="1">
          <mxGeometry x="100" y="360" width="20" height="400" as="geometry" />
        </mxCell>
        <mxCell id="1WxFumaSUKwx2EynOyQx-9" value="编辑场景灯效" style="html=1;verticalAlign=bottom;endArrow=block;entryX=0.1;entryY=-0.017;entryDx=0;entryDy=0;entryPerimeter=0;" edge="1" parent="1" target="1WxFumaSUKwx2EynOyQx-8">
          <mxGeometry width="80" relative="1" as="geometry">
            <mxPoint x="109.66666666666663" y="540" as="sourcePoint" />
            <mxPoint x="450" y="631.02" as="targetPoint" />
          </mxGeometry>
        </mxCell>
        <mxCell id="1WxFumaSUKwx2EynOyQx-15" value="打开预览界面" style="html=1;verticalAlign=bottom;endArrow=block;" edge="1" parent="1" source="1WxFumaSUKwx2EynOyQx-7">
          <mxGeometry width="80" relative="1" as="geometry">
            <mxPoint x="180" y="410" as="sourcePoint" />
            <mxPoint x="260" y="410" as="targetPoint" />
          </mxGeometry>
        </mxCell>
        <mxCell id="1WxFumaSUKwx2EynOyQx-17" value="ExLightManager.notifyEvent(map)" style="html=1;verticalAlign=bottom;endArrow=block;exitX=0.533;exitY=1.083;exitDx=0;exitDy=0;exitPerimeter=0;" edge="1" parent="1">
          <mxGeometry width="80" relative="1" as="geometry">
            <mxPoint x="260.3299999999999" y="440.32000000000005" as="sourcePoint" />
            <mxPoint x="459.5" y="440.32000000000005" as="targetPoint" />
          </mxGeometry>
        </mxCell>
        <mxCell id="1WxFumaSUKwx2EynOyQx-18" value="" style="html=1;points=[];perimeter=orthogonalPerimeter;" vertex="1" parent="1">
          <mxGeometry x="655" y="470" width="10" height="40" as="geometry" />
        </mxCell>
        <mxCell id="1WxFumaSUKwx2EynOyQx-19" value="发送灯效预览指令" style="html=1;verticalAlign=bottom;endArrow=block;" edge="1" parent="1" target="1WxFumaSUKwx2EynOyQx-5">
          <mxGeometry width="80" relative="1" as="geometry">
            <mxPoint x="460" y="470" as="sourcePoint" />
            <mxPoint x="540" y="470" as="targetPoint" />
          </mxGeometry>
        </mxCell>
        <mxCell id="1WxFumaSUKwx2EynOyQx-20" value="查询场景对应数据库值，播放灯效" style="html=1;verticalAlign=bottom;endArrow=block;labelBackgroundColor=none;fontFamily=Verdana;fontSize=12;elbow=vertical;edgeStyle=orthogonalEdgeStyle;curved=1;exitX=0.867;exitY=-0.014;exitDx=0;exitDy=0;exitPerimeter=0;" edge="1" parent="1" source="1WxFumaSUKwx2EynOyQx-18">
          <mxGeometry x="335" y="0.01999999999999602" as="geometry">
            <mxPoint x="671" y="470" as="sourcePoint" />
            <mxPoint x="665" y="509.1099999999999" as="targetPoint" />
            <Array as="points">
              <mxPoint x="720" y="469" />
              <mxPoint x="720" y="509" />
            </Array>
            <mxPoint x="47" as="offset" />
          </mxGeometry>
        </mxCell>
        <mxCell id="1WxFumaSUKwx2EynOyQx-22" value="通过 ContentProvider 更新预览场景数据库值" style="html=1;verticalAlign=bottom;endArrow=block;" edge="1" parent="1" target="1WxFumaSUKwx2EynOyQx-5">
          <mxGeometry width="80" relative="1" as="geometry">
            <mxPoint x="260" y="560" as="sourcePoint" />
            <mxPoint x="340" y="560" as="targetPoint" />
          </mxGeometry>
        </mxCell>
        <mxCell id="1WxFumaSUKwx2EynOyQx-24" value="ExLightManager.notifyEvent(map)" style="html=1;verticalAlign=bottom;endArrow=block;entryX=1.367;entryY=-0.111;entryDx=0;entryDy=0;entryPerimeter=0;" edge="1" parent="1">
          <mxGeometry width="80" relative="1" as="geometry">
            <mxPoint x="265" y="607" as="sourcePoint" />
            <mxPoint x="463.6700000000001" y="606.67" as="targetPoint" />
          </mxGeometry>
        </mxCell>
        <mxCell id="1WxFumaSUKwx2EynOyQx-26" value="" style="html=1;points=[];perimeter=orthogonalPerimeter;" vertex="1" parent="1">
          <mxGeometry x="655" y="640.58" width="10" height="40" as="geometry" />
        </mxCell>
        <mxCell id="1WxFumaSUKwx2EynOyQx-27" value="发送灯效预览指令" style="html=1;verticalAlign=bottom;endArrow=block;" edge="1" parent="1">
          <mxGeometry width="80" relative="1" as="geometry">
            <mxPoint x="460" y="640.58" as="sourcePoint" />
            <mxPoint x="659.5" y="640.58" as="targetPoint" />
          </mxGeometry>
        </mxCell>
        <mxCell id="1WxFumaSUKwx2EynOyQx-28" value="查询预览场景对应数据库值，播放灯效" style="html=1;verticalAlign=bottom;endArrow=block;labelBackgroundColor=none;fontFamily=Verdana;fontSize=12;elbow=vertical;edgeStyle=orthogonalEdgeStyle;curved=1;exitX=0.867;exitY=-0.014;exitDx=0;exitDy=0;exitPerimeter=0;" edge="1" parent="1" source="1WxFumaSUKwx2EynOyQx-26">
          <mxGeometry x="335" y="170.60000000000002" as="geometry">
            <mxPoint x="671" y="640.58" as="sourcePoint" />
            <mxPoint x="665" y="679.6899999999999" as="targetPoint" />
            <Array as="points">
              <mxPoint x="720" y="639.58" />
              <mxPoint x="720" y="679.58" />
            </Array>
            <mxPoint x="47" as="offset" />
          </mxGeometry>
        </mxCell>
        <mxCell id="1WxFumaSUKwx2EynOyQx-29" value="保存新增灯效，更新本地数据库值" style="html=1;verticalAlign=bottom;endArrow=block;labelBackgroundColor=none;fontFamily=Verdana;fontSize=12;elbow=vertical;edgeStyle=orthogonalEdgeStyle;curved=1;exitX=0.867;exitY=-0.014;exitDx=0;exitDy=0;exitPerimeter=0;" edge="1" parent="1">
          <mxGeometry x="-68.67000000000002" y="200.60000000000002" as="geometry">
            <mxPoint x="260.00000000000006" y="670.0200000000001" as="sourcePoint" />
            <mxPoint x="261.33" y="709.6899999999999" as="targetPoint" />
            <Array as="points">
              <mxPoint x="316.33" y="669.58" />
              <mxPoint x="316.33" y="709.58" />
            </Array>
            <mxPoint x="47" as="offset" />
          </mxGeometry>
        </mxCell>
      </root>
    </mxGraphModel>
  </diagram>
</mxfile>
